<?xml version="1.0" encoding="UTF-8"?>
<svg xmlns="http://www.w3.org/2000/svg" xmlns:xlink="http://www.w3.org/1999/xlink" viewBox="0 0 100 100" width="100px" height="100px">
<g id="surface105772357">
<path style=" stroke:none;fill-rule:nonzero;fill:rgb(47.450981%,31.37255%,94.901961%);fill-opacity:1;" d="M 90 8 L 10 8 C 8.894531 8 8 8.894531 8 10 L 8 90 C 8 91.105469 8.894531 92 10 92 L 90 92 C 91.105469 92 92 91.105469 92 90 L 92 10 C 92 8.894531 91.105469 8 90 8 Z M 58 52.890625 L 48 52.890625 L 48 84 L 40 84 L 40 52.890625 L 30 52.890625 L 30 46 L 58 46 Z M 60.242188 82.222656 L 60.242188 73.90625 C 60.242188 73.90625 64.785156 77.332031 70.234375 77.332031 C 75.683594 77.332031 75.472656 73.769531 75.472656 73.28125 C 75.472656 68.109375 60.03125 68.109375 60.03125 56.648438 C 60.03125 41.066406 82.53125 47.214844 82.53125 47.214844 L 82.253906 54.625 C 82.253906 54.625 78.476562 52.109375 74.214844 52.109375 C 69.953125 52.109375 68.414062 54.132812 68.414062 56.300781 C 68.414062 61.890625 83.996094 61.332031 83.996094 72.582031 C 84 89.910156 60.242188 82.222656 60.242188 82.222656 Z M 60.242188 82.222656 "/>
</g>
</svg>
