<svg class="animated" id="freepik_stories-man-reading" xmlns="http://www.w3.org/2000/svg" viewBox="0 0 500 500" version="1.1" xmlns:xlink="http://www.w3.org/1999/xlink" xmlns:svgjs="http://svgjs.com/svgjs"><style>svg#freepik_stories-man-reading:not(.animated) .animable {opacity: 0;}svg#freepik_stories-man-reading.animated #freepik--background-simple--inject-14 {animation: 1s 1 forwards cubic-bezier(.36,-0.01,.5,1.38) fadeIn;animation-delay: 0s;}svg#freepik_stories-man-reading.animated #freepik--Floor--inject-14 {animation: 1s 1 forwards cubic-bezier(.36,-0.01,.5,1.38) fadeIn;animation-delay: 0s;}svg#freepik_stories-man-reading.animated #freepik--Table--inject-14 {animation: 1s 1 forwards cubic-bezier(.36,-0.01,.5,1.38) fadeIn;animation-delay: 0s;}svg#freepik_stories-man-reading.animated #freepik--speech-bubble--inject-14 {animation: 1s 1 forwards cubic-bezier(.36,-0.01,.5,1.38) fadeIn;animation-delay: 0s;}svg#freepik_stories-man-reading.animated #freepik--Character--inject-14 {animation: 1s 1 forwards cubic-bezier(.36,-0.01,.5,1.38) fadeIn;animation-delay: 0s;}            @keyframes fadeIn {                0% {                    opacity: 0;                }                100% {                    opacity: 1;                }            }        </style><g id="freepik--background-simple--inject-14" class="animable" style="transform-origin: 245.699px 186.346px;"><path d="M397.31,89.09l-2-3.28c-16.78-27.65-47.12-44.32-79.11-42.3A84.49,84.49,0,0,0,304,45.19c-29.08,6.23-54.39,28.22-64.88,56.39-6.17,16.56-7.89,35.63-19.6,48.78-15.23,17.12-41.1,17.65-63.84,16.94s-48.63-.1-63.79,17.08c-9.49,10.76-12.51,26.06-11.75,40.47,2,38.15,28.62,72.26,62.42,89.22s73.61,18.47,110.61,11c51.84-10.45,101.13-39.14,130.76-83.46S421,136.92,397.31,89.09Z" style="fill: rgb(245, 245, 245); transform-origin: 245.699px 186.346px;" id="elelxbqjp4hk" class="animable"></path></g><g id="freepik--Floor--inject-14" class="animable" style="transform-origin: 250px 445.47px;"><path d="M466.13,445.47c0,.14-96.77.26-216.12.26s-216.14-.12-216.14-.26,96.75-.26,216.14-.26S466.13,445.33,466.13,445.47Z" style="fill: rgb(38, 50, 56); transform-origin: 250px 445.47px;" id="elfytjp3f4u8i" class="animable"></path></g><g id="freepik--Table--inject-14" class="animable" style="transform-origin: 404.58px 311.193px;"><path d="M371.6,191.48a5.1,5.1,0,0,0-4.87,2.08,8.11,8.11,0,0,0-1.16,4.94,7.78,7.78,0,0,0,1.34,4.62,8.62,8.62,0,0,0,5.61,3,12.72,12.72,0,0,0,6.05-.76c.48-2,0-4.52-.48-6.67a10.64,10.64,0,0,0-2-4.5A7.35,7.35,0,0,0,371.6,191.48Z" style="fill: rgb(69, 90, 100); transform-origin: 372.154px 198.818px;" id="el4qwj9attgog" class="animable"></path><path d="M415.86,186.8a4.57,4.57,0,0,1-.2.69c-.16.5-.38,1.15-.64,2-.58,1.69-1.38,4.14-2.32,7.2s-2,6.71-3,10.8-2.06,8.62-3,13.4-1.58,9.38-2.12,13.57-.89,8-1.12,11.16-.39,5.77-.46,7.55c-.05.85-.08,1.54-.11,2.06a3,3,0,0,1-.08.71,6.74,6.74,0,0,1,0-.72c0-.52,0-1.2,0-2.06,0-1.78.11-4.37.3-7.56s.52-7,1-11.2,1.19-8.8,2.09-13.6,2-9.34,3-13.43,2.15-7.75,3.15-10.79,1.83-5.49,2.48-7.16c.3-.8.55-1.44.73-1.92A3.29,3.29,0,0,1,415.86,186.8Z" style="fill: rgb(38, 50, 56); transform-origin: 409.33px 221.37px;" id="eldilkwwkyows" class="animable"></path><path d="M375.84,201a3.13,3.13,0,0,1,.38.56l1,1.64c.88,1.43,2.09,3.55,3.52,6.2s3,5.86,4.69,9.48,3.31,7.67,4.88,12,2.85,8.51,3.92,12.35,1.87,7.33,2.45,10.28,1,5.35,1.25,7l.27,1.92a2.82,2.82,0,0,1,.06.67,3,3,0,0,1-.16-.65c-.1-.49-.22-1.12-.37-1.9-.29-1.66-.76-4.05-1.41-7s-1.49-6.41-2.55-10.23-2.4-8-3.95-12.3-3.22-8.35-4.83-12-3.18-6.84-4.57-9.5-2.55-4.81-3.38-6.27c-.39-.69-.7-1.26-.94-1.69A2.6,2.6,0,0,1,375.84,201Z" style="fill: rgb(38, 50, 56); transform-origin: 387.051px 232.05px;" id="elb91roos6at9" class="animable"></path><rect x="389.11" y="250.2" width="23.92" height="2.25" rx="1.09" style="fill: rgb(126, 87, 194); transform-origin: 401.07px 251.325px;" id="eltbvi6ethvu" class="animable"></rect><path d="M420.83,275.45c-.79-8.75-7.69-9.95-9-10.88a4,4,0,0,1-.76-.73,5.8,5.8,0,0,1-1.23-3.66v-8.85H392.51v8.85a5.79,5.79,0,0,1-1.22,3.66,3.8,3.8,0,0,1-.77.73c-1.32.93-8.22,2.13-9,10.88s-3.71,28.65,1.46,35c4.77,5.87,9.43,6.22,17.18,6.23h2.06c7.75,0,12.41-.36,17.18-6.23C424.55,304.1,421.63,284.21,420.83,275.45Z" style="fill: rgb(126, 87, 194); transform-origin: 401.183px 284.005px;" id="el7t1uypnw6le" class="animable"></path><path d="M412.48,252.52c0,.14-5.11.26-11.41.26s-11.41-.12-11.41-.26,5.11-.26,11.41-.26S412.48,252.37,412.48,252.52Z" style="fill: rgb(38, 50, 56); transform-origin: 401.07px 252.52px;" id="elun04qo9ypkr" class="animable"></path><path d="M426.36,180.07a6.14,6.14,0,0,0-5-3.54,12.51,12.51,0,0,0-6.24,1.08,9.49,9.49,0,0,0-4.51,3.21,7.09,7.09,0,0,0-.44,6.42,12.81,12.81,0,0,0,4.11,5.18c2.54-.43,5.11-2,7.31-3.31a11.91,11.91,0,0,0,4.06-3.73A6.12,6.12,0,0,0,426.36,180.07Z" style="fill: rgb(69, 90, 100); transform-origin: 418.137px 184.453px;" id="eljhl0lqjxj6l" class="animable"></path><path d="M370.51,223.54a4.86,4.86,0,0,1,0-4.8,9.86,9.86,0,0,1,3.5-3.53,7.42,7.42,0,0,1,4.11-1.45,5.56,5.56,0,0,1,4.33,2.6,10.13,10.13,0,0,1,1.48,5,17.57,17.57,0,0,1-5.43,3.21,9.41,9.41,0,0,1-4.22.93A4.8,4.8,0,0,1,370.51,223.54Z" style="fill: rgb(69, 90, 100); transform-origin: 376.903px 219.631px;" id="elf4q4hh63y6j" class="animable"></path><path d="M394,212.69a4.79,4.79,0,0,1,0-4.79,9.71,9.71,0,0,1,3.5-3.53,7.33,7.33,0,0,1,4.1-1.46,5.58,5.58,0,0,1,4.34,2.61,10.08,10.08,0,0,1,1.47,5,17.52,17.52,0,0,1-5.42,3.21,9.16,9.16,0,0,1-4.23.93A4.75,4.75,0,0,1,394,212.69Z" style="fill: rgb(69, 90, 100); transform-origin: 400.384px 208.786px;" id="eljjjxosrvo6e" class="animable"></path><path d="M425.11,211a4.9,4.9,0,0,0,.67-4.81,9.9,9.9,0,0,0-3-4,7.58,7.58,0,0,0-3.93-2,5.68,5.68,0,0,0-4.71,2A10.32,10.32,0,0,0,412,207a17.78,17.78,0,0,0,5,4,9.43,9.43,0,0,0,4.13,1.5A4.82,4.82,0,0,0,425.11,211Z" style="fill: rgb(69, 90, 100); transform-origin: 419.065px 206.35px;" id="elhrg2f5vc4oo" class="animable"></path><path d="M392.65,198.78a4.5,4.5,0,0,0-2.93-3.7,5.8,5.8,0,0,0-4.14.68,7,7,0,0,0-3.21,2.85,9.87,9.87,0,0,0-.83,6.19,13,13,0,0,0,2.23,5.24c1.69-.27,3.49-1.62,5-2.79a10.08,10.08,0,0,0,2.95-3.37A8.37,8.37,0,0,0,392.65,198.78Z" style="fill: rgb(69, 90, 100); transform-origin: 387.045px 202.498px;" id="el61bu8zedxo" class="animable"></path><path d="M403.11,186.39a5.12,5.12,0,0,0-4.87,2.08,8.18,8.18,0,0,0-1.16,4.94,7.76,7.76,0,0,0,1.34,4.62,8.61,8.61,0,0,0,5.61,3.05,12.59,12.59,0,0,0,6.05-.76c.48-2,0-4.51-.48-6.66a10.68,10.68,0,0,0-2-4.51A7.35,7.35,0,0,0,403.11,186.39Z" style="fill: rgb(69, 90, 100); transform-origin: 403.665px 193.755px;" id="elapjte0fihdc" class="animable"></path><path d="M384.33,201.81a16.86,16.86,0,0,1-.14,2.58,54.42,54.42,0,0,0-.1,6.2,41.58,41.58,0,0,0,.77,6.15,18,18,0,0,1,.5,2.53,9.38,9.38,0,0,1-.86-2.45,30.93,30.93,0,0,1-.93-6.2,36.71,36.71,0,0,1,.25-6.27A10.52,10.52,0,0,1,384.33,201.81Z" style="fill: rgb(38, 50, 56); transform-origin: 384.446px 210.54px;" id="elaltlk0lt2jl" class="animable"></path><path d="M389.05,227.88a42.51,42.51,0,0,0-2.78-3.76,14.89,14.89,0,0,0-2.45-2.17c-.68-.48-1.18-.66-1.15-.74s.57,0,1.34.43a10.41,10.41,0,0,1,2.65,2.13A8.77,8.77,0,0,1,389.05,227.88Z" style="fill: rgb(38, 50, 56); transform-origin: 385.859px 224.531px;" id="elrf9oh03s2kb" class="animable"></path><path d="M407,210a7.72,7.72,0,0,1,.84,3.57,7.57,7.57,0,0,1-.44,3.64c-.15,0,0-1.64-.08-3.61S406.81,210,407,210Z" style="fill: rgb(38, 50, 56); transform-origin: 407.425px 213.605px;" id="elcj0e7w2q6ua" class="animable"></path><path d="M413.1,205.33a34.58,34.58,0,0,1-4.82,6.92,16.61,16.61,0,0,1,2.2-3.61A17.32,17.32,0,0,1,413.1,205.33Z" style="fill: rgb(38, 50, 56); transform-origin: 410.69px 208.79px;" id="eldqfyjdvufq" class="animable"></path><path d="M409.86,205a9.1,9.1,0,0,1-.11-3.12,9.62,9.62,0,0,1,.41-3.1,18.73,18.73,0,0,1-.3,6.22Z" style="fill: rgb(38, 50, 56); transform-origin: 409.978px 201.89px;" id="elaw8i8ghbmyj" class="animable"></path><path d="M383.31,290.87a16.76,16.76,0,0,1-.34-3.28,79.61,79.61,0,0,1,0-8c.09-1.55.16-3,.35-4.39a8.67,8.67,0,0,1,1.18-3.44,5.08,5.08,0,0,1,1.75-1.72,1.67,1.67,0,0,1,.84-.31,6,6,0,0,0-2.28,2.22,8.78,8.78,0,0,0-1,3.32c-.17,1.31-.22,2.8-.3,4.35-.15,3.09-.15,5.9-.13,7.93A26.3,26.3,0,0,1,383.31,290.87Z" style="fill: rgb(38, 50, 56); transform-origin: 384.98px 280.3px;" id="elhywl9j4op9g" class="animable"></path><path d="M352.72,445.9a3.11,3.11,0,0,1-.89-.14,3,3,0,0,1-2.15-2.88V407.69h.78v35.19a2.23,2.23,0,0,0,4.1,1.21l23.89-36.61.66.43-23.9,36.61A2.94,2.94,0,0,1,352.72,445.9Z" style="fill: rgb(38, 50, 56); transform-origin: 364.395px 426.69px;" id="el1hr50mlwm0s" class="animable"></path><path d="M447.61,445.9a3,3,0,0,1-2.49-1.38l-23.89-36.61.65-.43,23.9,36.61a2.22,2.22,0,0,0,4.09-1.21V407.69h.79v35.19a3,3,0,0,1-2.16,2.88A3.11,3.11,0,0,1,447.61,445.9Z" style="fill: rgb(38, 50, 56); transform-origin: 435.945px 426.69px;" id="eldzdrfbh45qi" class="animable"></path><rect x="343.23" y="316.06" width="122.69" height="95.29" style="fill: rgb(174, 116, 97); transform-origin: 404.575px 363.705px;" id="elxt47tbuad6" class="animable"></rect><path d="M429.15,359.06s0-.21,0-.61,0-1,0-1.78c0-1.57,0-3.87,0-6.85,0-6,0-14.62-.06-25.49l.11.14-79.12.07h0l.16-.21c0,12.07,0,23.78,0,34.73l-.15-.2,56.61.09,16.53.06,4.44,0,1.15,0h-1.11l-4.41,0-16.5.05-56.71.1h-.15v-.2c0-10.95,0-22.66,0-34.73v-.2H350l79.12.07h.1v.13c0,10.9,0,19.59-.06,25.57,0,3,0,5.26,0,6.82,0,.76,0,1.35,0,1.75S429.15,359.06,429.15,359.06Z" style="fill: rgb(38, 50, 56); transform-origin: 389.58px 341.595px;" id="elxkrt7177ido" class="animable"></path><path d="M429.15,400.24s0-.21,0-.61,0-1,0-1.78c0-1.57,0-3.87,0-6.85,0-6,0-14.62-.06-25.49l.11.14-79.12.07h0l.16-.21c0,12.07,0,23.78,0,34.73L350,400l56.61.09,16.53.06,4.44,0h1.17l-1.13,0-4.41,0-16.5.06-56.71.09h-.15v-.2c0-10.95,0-22.66,0-34.73v-.2H350l79.12.07h.1v.13c0,10.9,0,19.6-.06,25.58,0,3,0,5.25,0,6.81,0,.77,0,1.35,0,1.76S429.15,400.24,429.15,400.24Z" style="fill: rgb(38, 50, 56); transform-origin: 389.535px 382.735px;" id="ela69819e9mhm" class="animable"></path><polygon points="373.37 324.13 375.94 327.71 405.4 327.71 408.33 324.13 373.37 324.13" style="fill: rgb(38, 50, 56); transform-origin: 390.85px 325.92px;" id="elpql0fdx018r" class="animable"></polygon><polygon points="373.48 365.31 376.05 368.89 405.51 368.89 408.44 365.31 373.48 365.31" style="fill: rgb(38, 50, 56); transform-origin: 390.96px 367.1px;" id="el7hpnlrhe9yk" class="animable"></polygon><rect x="437.66" y="316.06" width="28.27" height="95.29" style="fill: rgb(111, 68, 57); transform-origin: 451.795px 363.705px;" id="ellr6qfcflqp" class="animable"></rect></g><g id="freepik--speech-bubble--inject-14" class="animable" style="transform-origin: 195.779px 148.67px;"><g id="elsu3cor1axe"><circle cx="191.19" cy="148.67" r="28.8" style="fill: rgb(255, 255, 255); transform-origin: 191.19px 148.67px; transform: rotate(-80.7deg);" class="animable"></circle></g><path d="M220,148.67a2.9,2.9,0,0,1-.06-.46c0-.34-.05-.79-.09-1.37,0-.3,0-.64-.07-1s-.12-.76-.19-1.2a21.57,21.57,0,0,0-.6-3,27.73,27.73,0,0,0-3.2-7.62,28.56,28.56,0,0,0-34.32-12.18,29,29,0,0,0-3.72,1.64,29.59,29.59,0,0,0-3.5,2.24,32.28,32.28,0,0,0-3.23,2.76,33,33,0,0,0-2.8,3.3,27.68,27.68,0,0,0-4.07,7.86,28.29,28.29,0,0,0,0,18,27.43,27.43,0,0,0,4.07,7.86,34.23,34.23,0,0,0,2.8,3.31,32.17,32.17,0,0,0,3.23,2.75,29.68,29.68,0,0,0,3.5,2.25,30.5,30.5,0,0,0,3.72,1.64,28.75,28.75,0,0,0,15,1.25,28.79,28.79,0,0,0,19.32-13.43,27.55,27.55,0,0,0,3.2-7.62,21.69,21.69,0,0,0,.6-3c.07-.43.15-.83.19-1.2s.05-.7.07-1c0-.58.07-1,.09-1.36a2.93,2.93,0,0,1,.06-.47s0,.16,0,.47,0,.79,0,1.37l0,1c0,.37-.1.78-.16,1.21a20.05,20.05,0,0,1-.56,3,26.94,26.94,0,0,1-3.14,7.73,29,29,0,0,1-19.51,13.74A29.2,29.2,0,0,1,181.29,176a31.57,31.57,0,0,1-3.79-1.66,29.92,29.92,0,0,1-3.57-2.28,26.79,26.79,0,0,1-6.16-6.17,28,28,0,0,1-4.16-8,28.84,28.84,0,0,1,0-18.36,28.24,28.24,0,0,1,4.16-8,33.11,33.11,0,0,1,2.86-3.36,32.16,32.16,0,0,1,3.3-2.8A30,30,0,0,1,177.5,123a31.57,31.57,0,0,1,3.79-1.66,29.09,29.09,0,0,1,15.26-1.22,29,29,0,0,1,19.51,13.73,27.16,27.16,0,0,1,3.14,7.73,20.05,20.05,0,0,1,.56,3c.06.44.13.84.16,1.21l0,1c0,.58,0,1,0,1.38S220,148.67,220,148.67Z" style="fill: rgb(38, 50, 56); transform-origin: 191.055px 148.647px;" id="elkyy0h5bytm" class="animable"></path><circle cx="182.67" cy="147.95" r="3.38" style="fill: rgb(38, 50, 56); transform-origin: 182.67px 147.95px;" id="elrw2xf1jts3n" class="animable"></circle><circle cx="191.71" cy="147.95" r="3.38" style="fill: rgb(38, 50, 56); transform-origin: 191.71px 147.95px;" id="elmt54vjjcj7h" class="animable"></circle><path d="M204.13,148a3.39,3.39,0,1,1-3.39-3.38A3.39,3.39,0,0,1,204.13,148Z" style="fill: rgb(38, 50, 56); transform-origin: 200.74px 148.01px;" id="ellltxz68dy1" class="animable"></path><path d="M233.37,154.93a4,4,0,1,1-4-4A4,4,0,0,1,233.37,154.93Z" style="fill: rgb(255, 255, 255); transform-origin: 229.37px 154.93px;" id="elnhcmlgox9xe" class="animable"></path><path d="M233.37,154.93c-.05,0-.06-.36-.23-1a4.13,4.13,0,0,0-1.48-2.08,3.84,3.84,0,0,0-3.6-.49,3.76,3.76,0,0,0,0,7.06,3.84,3.84,0,0,0,3.6-.49,4.11,4.11,0,0,0,1.48-2.09c.17-.59.18-.95.23-.95a1.94,1.94,0,0,1,0,1,4,4,0,0,1-1.45,2.35,4.2,4.2,0,0,1-4,.67,4.27,4.27,0,0,1,0-8.06,4.2,4.2,0,0,1,4,.67,4,4,0,0,1,1.45,2.35A1.94,1.94,0,0,1,233.37,154.93Z" style="fill: rgb(38, 50, 56); transform-origin: 229.253px 154.88px;" id="el9vg5gpo319k" class="animable"></path></g><g id="freepik--Character--inject-14" class="animable" style="transform-origin: 178.032px 282.89px;"><polygon points="308.99 356.74 335.18 445.9 327.82 445.9 291.71 356.12 308.99 356.74" style="fill: rgb(111, 68, 57); transform-origin: 313.445px 401.01px;" id="elrzqrvmsc03l" class="animable"></polygon><polygon points="244.73 356.74 270.92 445.05 263.56 445.05 227.45 356.12 244.73 356.74" style="fill: rgb(111, 68, 57); transform-origin: 249.185px 400.585px;" id="elezp42pow7lf" class="animable"></polygon><polygon points="164.95 356.74 141.21 445.05 148.57 445.05 182.24 356.12 164.95 356.74" style="fill: rgb(174, 116, 97); transform-origin: 161.725px 400.585px;" id="elw5fm3zruwcs" class="animable"></polygon><polygon points="241.84 356.74 219.34 445.05 226.7 445.05 259.13 356.12 241.84 356.74" style="fill: rgb(174, 116, 97); transform-origin: 239.235px 400.585px;" id="elejzrx38ldou" class="animable"></polygon><path d="M150.76,318.08s-2-26.88,2.05-34.56,43.45-23.24,43.45-23.24,27-42.64,45.07-51.66,88.57-7.78,98.82,6.15-1.23,50.42-6.56,72.56l-19.27,54.11L309,356.74H162.24Z" style="fill: rgb(126, 87, 194); transform-origin: 247.266px 279.802px;" id="elxgwex7eyei" class="animable"></path><path d="M333.55,214.34a2.73,2.73,0,0,1,.11.28c.06.18.16.46.26.83.22.75.51,1.86.8,3.31a51.38,51.38,0,0,1,.91,12.52,85.85,85.85,0,0,1-1,8.7c-.48,3.12-1.05,6.45-1.69,10-1.27,7-2.78,14.76-4.48,22.95l0,.13-.11.05c-2.2,1.11-4.52,2.28-6.9,3.43a423.72,423.72,0,0,1-43.72,18.37c-5.72,2-10.39,3.55-13.63,4.56l-3.74,1.14-1,.28-.34.08.32-.13,1-.33,3.71-1.23c3.22-1.08,7.87-2.64,13.57-4.72A453.52,453.52,0,0,0,321.19,276c2.38-1.15,4.7-2.33,6.9-3.43l-.14.18c1.71-8.19,3.24-15.93,4.54-22.94.65-3.5,1.24-6.82,1.73-9.93s.92-6,1.07-8.65a53.72,53.72,0,0,0-.75-12.48c-.26-1.45-.52-2.56-.71-3.31-.09-.35-.16-.63-.22-.85A1.09,1.09,0,0,1,333.55,214.34Z" style="fill: rgb(38, 50, 56); transform-origin: 297.357px 257.655px;" id="elhxeezr3nte" class="animable"></path><path d="M169.7,340.05a69.56,69.56,0,0,1,1.65,8.3,69.89,69.89,0,0,1,1.14,8.39,69,69,0,0,1-1.65-8.3A69.89,69.89,0,0,1,169.7,340.05Z" style="fill: rgb(38, 50, 56); transform-origin: 171.095px 348.395px;" id="el7m4y8tzryow" class="animable"></path><path d="M245.67,356.12c-.14,0,1.5-10.3,3.66-22.94s4-22.87,4.17-22.85-1.49,10.29-3.65,22.94S245.82,356.14,245.67,356.12Z" style="fill: rgb(38, 50, 56); transform-origin: 249.587px 333.225px;" id="eln7yvqsldlp" class="animable"></path><path d="M68.91,363.47,48.74,389S16,377.07,11.83,381.43l48.09,40.89L93,383.83Z" style="fill: rgb(38, 50, 56); transform-origin: 52.415px 392.895px;" id="el24c73wooebw" class="animable"></path><path d="M65.38,399.56a2.58,2.58,0,0,1-.54,3.4,2.49,2.49,0,0,1-3.38-.52,2.72,2.72,0,0,1,.6-3.59c1.1-.64,3-.25,3.45.92" style="fill: rgb(224, 224, 224); transform-origin: 63.4129px 400.972px;" id="el8aksyazho3t" class="animable"></path><path d="M59.92,422.32l3.18-4L15.8,380.6s-2.93-.89-4,.83Z" style="fill: rgb(69, 90, 100); transform-origin: 37.45px 401.345px;" id="elhbwog11zj3k" class="animable"></path><path d="M48.17,388.09c-.19.25.89,1.35,1.4,3.09s.29,3.25.59,3.34,1.1-1.57.44-3.66S48.3,387.84,48.17,388.09Z" style="fill: rgb(255, 255, 255); transform-origin: 49.5009px 391.287px;" id="eluq732wh0ius" class="animable"></path><path d="M41.35,385.89c-.25.18.43,1.45.38,3.12s-.71,2.92-.46,3.11,1.52-1,1.54-3.1S41.55,385.67,41.35,385.89Z" style="fill: rgb(255, 255, 255); transform-origin: 42.0119px 389.002px;" id="ellnarkfjbej" class="animable"></path><path d="M33.35,389.49c.17.23,1.5-.66,2-2.46s-.17-3.24-.44-3.13-.17,1.37-.6,2.84S33.14,389.27,33.35,389.49Z" style="fill: rgb(255, 255, 255); transform-origin: 34.4218px 386.71px;" id="elb7srftjuz0l" class="animable"></path><path d="M53.41,382.79c-.08.29,1.27.89,2.52,2.1s1.93,2.52,2.22,2.42,0-1.78-1.48-3.19S53.45,382.5,53.41,382.79Z" style="fill: rgb(255, 255, 255); transform-origin: 55.8287px 384.996px;" id="el6kukc91nkgp" class="animable"></path><path d="M112.75,320.09c0,2.32-10.34,108.63-10.34,108.63l34.93,4s8.69-53.62,10-63.5,5.87-27.59,5.87-27.59l74.51-7.37s-36.55-51.12-40.1-51.34S112.75,320.09,112.75,320.09Z" style="fill: rgb(38, 50, 56); transform-origin: 165.065px 357.82px;" id="el597n8asczbg" class="animable"></path><path d="M52.39,378.84s62.53-84.78,66.14-89.22,7.77-9.15,20.81-9.15,48.32,2.5,48.32,2.5l18.64-8.49L274,284.91s2.5,32.19-1.94,39.69-30.8,9.43-36.35,9.71-91.51-11.39-91.51-11.39h0s-16.84,23.38-24.93,32.36c-5.76,6.41-36.53,45.9-36.53,45.9Z" style="fill: rgb(38, 50, 56); transform-origin: 163.546px 337.83px;" id="eldglat1z7028" class="animable"></path><path d="M82.79,401.87l-31.1-22.93.29-.4c.63-.85,62.59-84.83,66.16-89.23,3.38-4.16,7.59-9.34,21.2-9.34,12.52,0,45.89,2.33,48.23,2.49l18.66-8.5.15,0,68.05,10.49,0,.39c.1,1.33,2.46,32.44-2,40-4.82,8.13-33.5,9.79-36.76,10-5.41.31-84.87-10.49-91.3-11.36-1.82,2.52-17.22,23.76-24.79,32.17-5.68,6.32-36.2,45.47-36.51,45.86ZM53.08,378.73,82.6,400.49c3.2-4.11,30.85-39.53,36.26-45.54,8-8.87,24.73-32.09,24.9-32.33l.17-.24.3,0c.86.12,86,11.66,91.41,11.39,1.28-.07,31.32-1.65,35.95-9.47,4.05-6.83,2.17-35.29,1.9-39L206.37,275l-18.62,8.48h-.13c-.35,0-35.4-2.5-48.28-2.5-13.13,0-17.17,5-20.42,9C115.49,294.16,57.77,372.38,53.08,378.73Z" style="fill: rgb(69, 90, 100); transform-origin: 163.416px 337.915px;" id="el7ezm4kp6w2c" class="animable"></path><path d="M137.25,311.68a48.12,48.12,0,0,1,4,5.77,47.3,47.3,0,0,1,3.6,6.05,47.14,47.14,0,0,1-4-5.77A47.3,47.3,0,0,1,137.25,311.68Z" style="fill: rgb(69, 90, 100); transform-origin: 141.05px 317.59px;" id="el1qxu2y0lrz4" class="animable"></path><path d="M105.23,407.7,107,440.19S74.59,452.91,74.34,459l63.11-1.19-.7-50.74Z" style="fill: rgb(38, 50, 56); transform-origin: 105.895px 433.035px;" id="elo0o40yd8eco" class="animable"></path><path d="M126.48,437.09a2.58,2.58,0,0,1,1.84,2.91,2.48,2.48,0,0,1-2.87,1.84,2.72,2.72,0,0,1-1.93-3.09c.4-1.2,2.07-2.16,3.2-1.59" style="fill: rgb(224, 224, 224); transform-origin: 125.917px 439.437px;" id="eleb4giuvch6r" class="animable"></path><path d="M137.45,457.76l-.27-5.11L76.77,455.7S74,457,74.34,459Z" style="fill: rgb(69, 90, 100); transform-origin: 105.881px 455.825px;" id="elcemvz7xhzys" class="animable"></path><path d="M106,439.89c0,.31,1.56.42,3.09,1.38s2.37,2.24,2.65,2.12-.21-1.9-2.09-3S105.91,439.61,106,439.89Z" style="fill: rgb(255, 255, 255); transform-origin: 108.905px 441.509px;" id="el559m12p66ge" class="animable"></path><path d="M99.42,442.75c-.07.3,1.28.8,2.35,2.08s1.4,2.66,1.7,2.64.47-1.76-.89-3.34S99.42,442.46,99.42,442.75Z" style="fill: rgb(255, 255, 255); transform-origin: 101.548px 445.045px;" id="el96qi3eykxrs" class="animable"></path><path d="M95.81,450.75c.28.06.68-1.49-.15-3.16s-2.27-2.32-2.4-2.06.79,1.14,1.44,2.53S95.5,450.72,95.81,450.75Z" style="fill: rgb(255, 255, 255); transform-origin: 94.7019px 448.113px;" id="elc0he0dwb2e" class="animable"></path><path d="M106.4,432.44c.14.28,1.54-.17,3.29-.09s3.11.61,3.26.34-1.17-1.34-3.22-1.41S106.25,432.2,106.4,432.44Z" style="fill: rgb(255, 255, 255); transform-origin: 109.675px 432.021px;" id="elmy8a2emv3u" class="animable"></path><path d="M232.78,201.16,235,221.43l-25.45,51.05s-15.05,5-20.38,10.49l12.19.53a84.51,84.51,0,0,1,48.38,17.74c6,4.7,10.87,9.78,11.77,14.4,2.65,13.6,6.71,11.5,6.71,11.5l15.43-19.85,10.8-21.48,21.69-84.14-20.93-11.5-4.7-6.84-31,4.32-6.17,6.09Z" style="fill: rgb(69, 90, 100); transform-origin: 252.655px 255.293px;" id="el7p7sys3z1xm" class="animable"></path><path d="M181.37,255.54l13-5.44,20.43-28.66s9.48-18.95,18-20.28S235,221.43,235,221.43l-13.1,37.2-21.13,14.79-14.57-1.27-9.43-8Z" style="fill: rgb(69, 90, 100); transform-origin: 207.013px 237.261px;" id="elicye5lm5rv" class="animable"></path><path d="M234.81,208.21a3.8,3.8,0,0,1-.23.67c-.18.48-.43,1.1-.73,1.87-.66,1.69-1.59,4-2.72,6.88-2.29,5.82-5.36,13.89-8.72,22.81s-6.49,17-8.87,22.76c-1.18,2.89-2.17,5.22-2.88,6.82l-.82,1.83a3,3,0,0,1-.32.63,3.19,3.19,0,0,1,.22-.67c.19-.47.43-1.1.74-1.87.66-1.68,1.59-4,2.72-6.88,2.29-5.81,5.36-13.88,8.72-22.81s6.48-17,8.86-22.75c1.19-2.89,2.18-5.23,2.89-6.82l.82-1.84A3.33,3.33,0,0,1,234.81,208.21Z" style="fill: rgb(38, 50, 56); transform-origin: 222.165px 240.345px;" id="elijo3e7h6t7m" class="animable"></path><path d="M260.32,207.37a8.61,8.61,0,0,1-.78-1.38c-.51-1-1.16-2.28-2-3.84h.34c-.68,1.5-1.47,3.28-2.53,5.17a22.38,22.38,0,0,1-4.24,5.6l-.49.45.05-.66v-.11c.38-5.16,1-9.81,1.53-13.15.28-1.67.53-3,.72-3.95a8.14,8.14,0,0,1,.35-1.43,7.41,7.41,0,0,1-.15,1.46c-.14,1-.33,2.37-.55,4-.46,3.35-1,8-1.38,13.14v.11l-.43-.21a23.15,23.15,0,0,0,4.17-5.45c1.06-1.86,1.89-3.62,2.61-5.1l.18-.37.16.37c.73,1.58,1.33,2.9,1.8,3.91A9.33,9.33,0,0,1,260.32,207.37Z" style="fill: rgb(38, 50, 56); transform-origin: 255.47px 203.72px;" id="el9v1gff839wb" class="animable"></path><path d="M293.17,191.75a1.72,1.72,0,0,1-.29.41l-.9,1.1c-.8,1-2,2.3-3.48,3.93a158.2,158.2,0,0,1-12.4,12c-2.32,2-4.59,3.88-6.71,5.53l-.38.3v-.48a34.12,34.12,0,0,0-1.56-9.57l.25.09-3.8,2.18a10.8,10.8,0,0,1-1.4.73,9.31,9.31,0,0,1,1.3-.89l3.73-2.31.17-.11.07.2a32.34,32.34,0,0,1,1.72,9.67l-.39-.19c2.1-1.66,4.36-3.53,6.66-5.54,5.09-4.42,9.43-8.72,12.49-11.9,1.53-1.59,2.74-2.91,3.59-3.81l1-1A2.32,2.32,0,0,1,293.17,191.75Z" style="fill: rgb(38, 50, 56); transform-origin: 277.835px 203.385px;" id="elc0wn3rqkq79" class="animable"></path><path d="M291.29,186l2.11-43c1.34-13.46-5.38-25.47-18.88-26.43l-1.25,0a24.2,24.2,0,0,0-24.41,21.93c-1.09,11.68-2.15,24.59-2.16,30.87,0,13,12.95,15.17,12.95,15.17s-.34,7.89-.56,11.69h0l2.72,9.9Z" style="fill: rgb(255, 191, 157); transform-origin: 270.134px 161.349px;" id="el5k6eg2gi52h" class="animable"></path><path d="M259.68,184.53a31.36,31.36,0,0,0,17-4.77s-4.2,9.7-17.14,8.37Z" style="fill: rgb(255, 154, 108); transform-origin: 268.11px 184.008px;" id="elbizf0s4l6u8" class="animable"></path><path d="M252.73,150.33a1.85,1.85,0,0,0,1.77,1.89,1.78,1.78,0,0,0,1.93-1.65,1.84,1.84,0,0,0-1.76-1.89A1.78,1.78,0,0,0,252.73,150.33Z" style="fill: rgb(38, 50, 56); transform-origin: 254.58px 150.45px;" id="elfemmc5vian7" class="animable"></path><path d="M251.57,143.78c.23.25,1.65-.77,3.64-.74s3.45,1.05,3.67.81-.12-.55-.76-1a5.06,5.06,0,0,0-2.93-1,4.89,4.89,0,0,0-2.9.9C251.67,143.24,251.46,143.67,251.57,143.78Z" style="fill: rgb(38, 50, 56); transform-origin: 255.245px 142.868px;" id="elsdsr6mnloxf" class="animable"></path><path d="M270.13,150.71a1.86,1.86,0,0,0,1.77,1.89,1.77,1.77,0,0,0,1.93-1.64,1.86,1.86,0,0,0-1.76-1.9A1.78,1.78,0,0,0,270.13,150.71Z" style="fill: rgb(38, 50, 56); transform-origin: 271.98px 150.83px;" id="el58d4u7t2326" class="animable"></path><path d="M271.12,144.5c.23.25,1.65-.77,3.64-.74s3.45,1,3.67.8-.12-.54-.75-1a5.12,5.12,0,0,0-2.93-.94,4.85,4.85,0,0,0-2.9.89C271.23,144,271,144.39,271.12,144.5Z" style="fill: rgb(38, 50, 56); transform-origin: 274.793px 143.603px;" id="el9mgfk1r3m6h" class="animable"></path><path d="M263.77,159.74a13.79,13.79,0,0,0-3.24-.63c-.5-.06-1-.16-1.07-.51a2.69,2.69,0,0,1,.36-1.51c.5-1.23,1-2.51,1.56-3.86,2.16-5.5,3.74-10,3.52-10.1s-2.16,4.3-4.32,9.79c-.53,1.36-1,2.65-1.5,3.89a2.93,2.93,0,0,0-.29,2,1.25,1.25,0,0,0,.83.76,3.67,3.67,0,0,0,.86.13A13,13,0,0,0,263.77,159.74Z" style="fill: rgb(38, 50, 56); transform-origin: 261.824px 151.477px;" id="elbix8qrenv4" class="animable"></path><path d="M270.56,138.25c.26.51,2.21,0,4.56,0s4.32.38,4.57-.15c.1-.25-.29-.71-1.11-1.13a7.45,7.45,0,0,0-3.49-.74,7.57,7.57,0,0,0-3.47.87C270.82,137.53,270.44,138,270.56,138.25Z" style="fill: rgb(38, 50, 56); transform-origin: 275.122px 137.351px;" id="elic3zmdffhdk" class="animable"></path><path d="M251.56,137.92c.4.46,2,0,4,.07s3.6.4,4-.06c.17-.22-.07-.69-.78-1.13a6.66,6.66,0,0,0-6.44,0C251.62,137.23,251.38,137.69,251.56,137.92Z" style="fill: rgb(38, 50, 56); transform-origin: 255.558px 137.07px;" id="elswzq9sck95" class="animable"></path><path d="M292.24,152.14c.22-.1,8.95-2.53,8.55,6.35s-9.22,6.64-9.22,6.38S292.24,152.14,292.24,152.14Z" style="fill: rgb(255, 191, 157); transform-origin: 296.187px 158.536px;" id="elpj9x4k9onfh" class="animable"></path><path d="M294.43,161.63s.15.12.4.25A1.56,1.56,0,0,0,296,162c.95-.31,1.81-1.76,1.92-3.36a5.06,5.06,0,0,0-.33-2.23,1.8,1.8,0,0,0-1.11-1.24.78.78,0,0,0-.93.39c-.13.24-.08.42-.13.43s-.19-.16-.1-.52a1,1,0,0,1,.38-.54,1.17,1.17,0,0,1,.86-.19,2.18,2.18,0,0,1,1.55,1.45,5.34,5.34,0,0,1,.43,2.5c-.14,1.78-1.13,3.42-2.43,3.73a1.67,1.67,0,0,1-1.4-.3C294.43,161.85,294.4,161.65,294.43,161.63Z" style="fill: rgb(255, 154, 108); transform-origin: 296.487px 158.594px;" id="elwotg3mtzmnr" class="animable"></path><path d="M231.62,125.38a2.13,2.13,0,0,1,1-1.19,6.43,6.43,0,0,1,3.34-.4,18.58,18.58,0,0,0,8.21-1.69,9.1,9.1,0,0,1-2.31-1.77,5.57,5.57,0,0,1-1.37-5.61,1.25,1.25,0,0,1,.73-.82c.59-.15,1.07.44,1.45.9a4.8,4.8,0,0,0,4.43,2.11,7.86,7.86,0,0,0,3.42-.86,1.31,1.31,0,0,0,.11-.12l1.42-1.31h0c3.48-3.17,6.45-5.34,9.46-6.4,4.4-1.56,11.68-2,16.15-.58s8.36,5.22,8.79,9.88c2.62-2,6.43-1.85,9.46-.48l.08,0c3.38,1.37,5.18,5.08,6,8.63.05.2.09.39.13.59a13.69,13.69,0,0,0,4.43,4.71c.33.21.7.46.72.85s-.31.68-.63.89a6.81,6.81,0,0,1-2.83,1,15.22,15.22,0,0,0,1,2.47c.36.67.78,1.48.42,2.14a1.46,1.46,0,0,1-1.55.6,4.39,4.39,0,0,1-1.57-.79c.35.93.69,1.87,1,2.8a8.12,8.12,0,0,1-3.72-.41c-.87,3.24-1.68,9.29-2.62,11.47-2.36-.06-2.92-.34-4.13,0-1.55.44-1.09,3.19-3.05,2.33-1-.44-2.4-4.37-2.7-5.42a50.87,50.87,0,0,1-1.27-21.54,16.21,16.21,0,0,0-4.87-3.84l.15.14c-3.58-1.41-7.63-2.83-11.14-1.27-2.73,1.2-4.42,3.91-6.51,6a18.57,18.57,0,0,1-14,6.08c-.68,3.9-1.11,10.3-1.46,13.94l-2.8-7.45v0c-.23-.44-.42-.88-.6-1.32l-.07-.13v0c-.29-.71-.57-1.42-.94-2.12l0,0a2.29,2.29,0,0,1-3.21-3.2,5.09,5.09,0,0,1,1.16-1.06A3.61,3.61,0,0,1,238,134a2.85,2.85,0,0,1-1.89-2.89,2.41,2.41,0,0,1,1.52-1.87A8.27,8.27,0,0,1,233,128C232.12,127.41,231.26,126.51,231.62,125.38Z" style="fill: rgb(38, 50, 56); transform-origin: 269.403px 130.633px;" id="el4dtdc3km30o" class="animable"></path><path d="M282.34,118.83a12.66,12.66,0,0,1,1.25,1.25,9.25,9.25,0,0,1,1.81,4.4,16.63,16.63,0,0,1,.19,3.31c0,1.2-.2,2.47-.35,3.82a36,36,0,0,0-.28,4.25,14.48,14.48,0,0,0,.2,2.26,4.67,4.67,0,0,0,.82,2.22,2,2,0,0,0,1.81.7,3,3,0,0,0,1.69-.86,6.78,6.78,0,0,0,1.39-3.25l-.27,0a10.58,10.58,0,0,0,1.46,2.79,3.86,3.86,0,0,0,2.47,1.48,2.43,2.43,0,0,0,1.34-.18,2.13,2.13,0,0,0,.95-.85,2.27,2.27,0,0,0,.33-1.14,1.61,1.61,0,0,0-.38-1l-.14.12a8.34,8.34,0,0,0,2.7,2.21,6.06,6.06,0,0,0,.85.37,1.13,1.13,0,0,0,.31.09l-.29-.13c-.19-.09-.47-.22-.82-.42a8.41,8.41,0,0,1-2.6-2.24l-.15.12a1.66,1.66,0,0,1,0,1.93,1.93,1.93,0,0,1-.86.76,2.27,2.27,0,0,1-1.22.15,3.64,3.64,0,0,1-2.29-1.41,10.82,10.82,0,0,1-1.41-2.73l-.17-.42-.1.44a6.61,6.61,0,0,1-1.33,3.11,2.68,2.68,0,0,1-1.51.77,1.68,1.68,0,0,1-1.54-.59,4.39,4.39,0,0,1-.75-2.08,13.86,13.86,0,0,1-.2-2.21,33.79,33.79,0,0,1,.26-4.22c.14-1.35.28-2.63.32-3.84a16.28,16.28,0,0,0-.23-3.36,9.07,9.07,0,0,0-1.93-4.43A5.19,5.19,0,0,0,282.34,118.83Z" style="fill: rgb(69, 90, 100); transform-origin: 291.415px 130.028px;" id="elp26hsou7izi" class="animable"></path><path d="M241.62,129.74l.1.1c.09.06.19.15.32.25a3.93,3.93,0,0,0,.53.37,6.55,6.55,0,0,0,.77.45,11.51,11.51,0,0,0,5.52,1.24,14.64,14.64,0,0,0,8-2.56,25.4,25.4,0,0,0,7.07-7.47c1-1.53,1.85-3.11,2.76-4.56a17.56,17.56,0,0,1,3.07-3.83,8.94,8.94,0,0,1,3.84-2.11,6.45,6.45,0,0,1,2-.14,6.79,6.79,0,0,1,1.79.42,7.61,7.61,0,0,1,2.64,1.75,7.46,7.46,0,0,1,1.38,2,9.3,9.3,0,0,1,.59,2s0,0,0-.14,0-.24,0-.4a6.85,6.85,0,0,0-.43-1.49,7.55,7.55,0,0,0-1.37-2,7.64,7.64,0,0,0-2.68-1.83,7.27,7.27,0,0,0-1.85-.46,6.88,6.88,0,0,0-2.06.13,9.18,9.18,0,0,0-4,2.15,17.49,17.49,0,0,0-3.14,3.88c-.92,1.46-1.76,3-2.77,4.56a25.57,25.57,0,0,1-7,7.4,14.61,14.61,0,0,1-7.81,2.58,11.82,11.82,0,0,1-5.46-1.13A19.29,19.29,0,0,1,241.62,129.74Z" style="fill: rgb(69, 90, 100); transform-origin: 261.81px 121.729px;" id="ely1grrt66xin" class="animable"></path><path d="M240.69,124a2,2,0,0,0,.45.34,9.67,9.67,0,0,0,1.35.76,13,13,0,0,0,2.15.81,14.15,14.15,0,0,0,5.59.42,12.74,12.74,0,0,0,2.25-.48,9.6,9.6,0,0,0,1.45-.55,2.16,2.16,0,0,0,.5-.27s-.76.28-2,.61a15.37,15.37,0,0,1-5,.46,16.69,16.69,0,0,1-2.73-.46,13.77,13.77,0,0,1-2.13-.74C241.39,124.38,240.72,123.94,240.69,124Z" style="fill: rgb(69, 90, 100); transform-origin: 247.56px 125.217px;" id="eli8e1m5fseej" class="animable"></path><path d="M263.62,165.81c.12-.32,2.17.61,4.42-.49s3-3.38,3.3-3.26.18.66-.21,1.59a5.62,5.62,0,0,1-2.64,2.78,4.87,4.87,0,0,1-3.65.28C264,166.4,263.55,165.94,263.62,165.81Z" style="fill: rgb(38, 50, 56); transform-origin: 267.561px 164.498px;" id="elprnsxx6w2z" class="animable"></path><path d="M245.67,356.12c0-.63,7-45.79,9.64-51.55,2.13-4.56,19.19-8.12,37.47-15.5,19.68-7.94,42.49-8.49,42.49-8.49l-28.88,66.66Z" style="fill: rgb(126, 87, 194); transform-origin: 290.47px 318.35px;" id="elbb4668lhvz4" class="animable"></path><polygon points="255.9 260.35 239.23 261.59 239.23 277.53 258.07 279.78 255.9 260.35" style="fill: rgb(255, 191, 157); transform-origin: 248.65px 270.065px;" id="eletg09fqvcbi" class="animable"></polygon><path d="M308.75,197.88c8.23,3.38,15.86,10.68,15.36,20.14-.74,14-4,44.11-4.79,51.86-1,10.12-4.42,18.64-19.31,19.2s-36.8-3.06-36.8-3.06-7.89,4-10.07-.39c-.57-1.17-4.49-24.74-4.49-24.74,0-.32,1.93-2.56,4.69-3.94a6.6,6.6,0,0,1,8.67,2.67h0l29-.95,5.75-27.3" style="fill: rgb(69, 90, 100); transform-origin: 286.392px 243.509px;" id="ela61ixyeeazo" class="animable"></path><path d="M296.79,231.37a4.14,4.14,0,0,1-.07.47c-.07.33-.16.79-.27,1.39-.25,1.23-.62,3-1.09,5.36-1,4.7-2.38,11.53-4.16,20.12l0,.12h-.13l-20.4.7-5.83.2-1.5.05-.75,0H262s-.37-.21-.2-.12h0l-.1-.15a6.2,6.2,0,0,0-2.07-2.1,6.32,6.32,0,0,0-5.87-.45,12.58,12.58,0,0,0-2.71,1.68,13.73,13.73,0,0,0-1.22,1.07c-.19.19-.38.39-.55.59s-.17.21-.25.31-.16.28-.15.23v0c.92,5.48,1.9,11.24,3,17.2.28,1.49.56,3,.84,4.51.15.75.3,1.51.48,2.26a2.31,2.31,0,0,0,.39,1,3.47,3.47,0,0,0,.31.44l.4.37a5.58,5.58,0,0,0,4.34.64,17.14,17.14,0,0,0,4.47-1.48l.08,0h.08c5.9.93,12.13,1.72,18.49,2.32,4.39.4,8.75.69,13.05.77s8.56,0,12.52-1.19a16.51,16.51,0,0,0,5.37-2.81,13.92,13.92,0,0,0,3.73-4.6A30.9,30.9,0,0,0,319.17,269c1.59-15.24,3-29,4-40.51.25-2.88.46-5.63.63-8.23.09-1.31.17-2.57.15-3.78,0-.61-.12-1.21-.17-1.79s-.23-1.15-.35-1.71a17.77,17.77,0,0,0-2.7-5.73,24.88,24.88,0,0,0-3.55-4,30.63,30.63,0,0,0-6.11-4.22c-.75-.41-1.34-.67-1.74-.85l-.59-.29s.21.07.61.24,1,.42,1.77.81a29.94,29.94,0,0,1,6.2,4.15,25.83,25.83,0,0,1,3.62,4,18.16,18.16,0,0,1,2.77,5.8c.12.57.26,1.14.37,1.73s.15,1.2.18,1.82c0,1.25,0,2.52-.13,3.82-.16,2.6-.36,5.36-.59,8.24-.94,11.56-2.34,25.29-3.9,40.53a31.3,31.3,0,0,1-2.8,11.45,14.62,14.62,0,0,1-3.85,4.77,17.27,17.27,0,0,1-5.54,2.9c-4,1.24-8.39,1.27-12.68,1.22s-8.69-.37-13.09-.77c-6.37-.6-12.6-1.39-18.52-2.33l.16,0a18.3,18.3,0,0,1-4.62,1.53A6.08,6.08,0,0,1,254,287l-.46-.43a3.11,3.11,0,0,1-.36-.51,2.91,2.91,0,0,1-.45-1.15c-.19-.77-.33-1.53-.48-2.29-.28-1.51-.56-3-.84-4.51-1.07-6-2-11.73-3-17.21v0h0a1.14,1.14,0,0,1,.24-.51c.09-.11.18-.23.27-.33s.38-.42.58-.62a13.17,13.17,0,0,1,1.26-1.11,13.6,13.6,0,0,1,2.82-1.73,6.82,6.82,0,0,1,8.49,2.74l.11.17h0c.17.1-.24-.13-.19-.1h.54l.76,0,1.5-.05,5.83-.18,20.4-.63-.16.13c1.84-8.57,3.3-15.39,4.31-20.08l1.17-5.35c.14-.6.24-1.05.31-1.38Z" style="fill: rgb(38, 50, 56); transform-origin: 286.335px 243.637px;" id="elwb6hlv5cfc" class="animable"></path><path d="M307,200.16c.06.07-1,1.1-2.5,3a36.45,36.45,0,0,0-4.67,8.11,40.7,40.7,0,0,0-2.56,9c-.4,2.37-.48,3.87-.58,3.86a4.49,4.49,0,0,1,0-1.05c0-.68.09-1.66.23-2.87a36.09,36.09,0,0,1,2.45-9.16,34.9,34.9,0,0,1,2.38-4.66,31.5,31.5,0,0,1,2.48-3.48,24.63,24.63,0,0,1,2-2.1C306.68,200.37,307,200.13,307,200.16Z" style="fill: rgb(38, 50, 56); transform-origin: 301.831px 212.144px;" id="el7uq9slyqg1a" class="animable"></path><path d="M303.55,270.88c-.09,0-.31-1-1-2.51a16.56,16.56,0,0,0-9.11-8.65c-1.55-.59-2.58-.76-2.56-.85s.26,0,.73,0a10.4,10.4,0,0,1,1.95.46,13.86,13.86,0,0,1,2.72,1.22,16.58,16.58,0,0,1,2.93,2.18,16.84,16.84,0,0,1,2.33,2.81,14.14,14.14,0,0,1,1.35,2.65,10,10,0,0,1,.56,1.92C303.56,270.62,303.59,270.87,303.55,270.88Z" style="fill: rgb(38, 50, 56); transform-origin: 297.223px 264.855px;" id="ela9rft9pviok" class="animable"></path><path d="M263.44,285.19c-.08,0,.32-1.43.65-3.77a56.9,56.9,0,0,0,.51-9.17,47.5,47.5,0,0,0-.4-5,30.88,30.88,0,0,0-.85-4c-.65-2.26-1.43-3.51-1.34-3.56a4.05,4.05,0,0,1,.57.86,7.37,7.37,0,0,1,.54,1.09,11,11,0,0,1,.58,1.5,26,26,0,0,1,1,4.07,41.18,41.18,0,0,1,.45,5.1,45.59,45.59,0,0,1-.67,9.24,25,25,0,0,1-.64,2.74A4.35,4.35,0,0,1,263.44,285.19Z" style="fill: rgb(38, 50, 56); transform-origin: 263.586px 272.44px;" id="elfmch0f4umft" class="animable"></path><path d="M150.25,225.07s1.13-2.71,3.38-3.27c0,0,11.16,3,14.42,6.56,0,0,.65-2.54,6.64-7.64a26.81,26.81,0,0,1,15.87-6.38l5.93,3.73-23.77,16.65-7.07,2.47Z" style="fill: rgb(250, 250, 250); transform-origin: 173.37px 225.765px;" id="el1kxbn81mmgz" class="animable"></path><path d="M150.25,225.07a2,2,0,0,1,.3.2l.83.63,3.12,2.39L165.77,237l-.19,0,7.06-2.49,0,0L196.07,218l.27-.19v.44c-2-1.27-4-2.52-5.93-3.73l.14,0a26.64,26.64,0,0,0-13.68,4.75,39.13,39.13,0,0,0-5,4.31,26.12,26.12,0,0,0-2.08,2.31,10,10,0,0,0-1.51,2.44l-.12.32-.23-.23a14.66,14.66,0,0,0-4-2.72,40.58,40.58,0,0,0-4-1.74c-2.5-1-4.66-1.64-6.38-2.14h.05A5.09,5.09,0,0,0,150.9,224a9,9,0,0,0-.49.79c-.11.18-.15.27-.16.27a.91.91,0,0,1,.11-.3,7.68,7.68,0,0,1,.45-.82,5.12,5.12,0,0,1,2.79-2.25h.06c1.73.46,3.91,1.11,6.43,2.05a41.5,41.5,0,0,1,4,1.7,15.49,15.49,0,0,1,4.11,2.77l-.35.09a9.91,9.91,0,0,1,1.57-2.61,26.67,26.67,0,0,1,2.09-2.35A40.12,40.12,0,0,1,176.6,219a27,27,0,0,1,14-4.88h.07l.07,0,5.93,3.72.33.21-.32.23-.27.19L172.84,234.9l0,0h0l-7.08,2.44-.1,0-.09-.07-11.22-9-3-2.45-.78-.64A1.4,1.4,0,0,1,150.25,225.07Z" style="fill: rgb(38, 50, 56); transform-origin: 173.625px 225.73px;" id="elu4q23zxa2qo" class="animable"></path><path d="M146.33,224.61l.67-1.35,16.74,9.32s5.5-.34,5.61-4c0,0,27.41-11.46,28.08-11.12S242,254.26,242,254.26l-39.65,8.45L184,254.59Z" style="fill: rgb(126, 87, 194); transform-origin: 194.165px 240.081px;" id="el7gjcpky8q3n" class="animable"></path><path d="M197.3,260.48c-.09.11-7.68-6.05-17-13.75s-16.7-14-16.61-14.15,7.68,6,16.95,13.75S197.39,260.36,197.3,260.48Z" style="fill: rgb(38, 50, 56); transform-origin: 180.495px 246.529px;" id="el3sdfxp1v466" class="animable"></path><path d="M208,261.33c-.1.11-8.74-7.1-19.3-16.1s-19-16.39-19-16.5,8.73,7.1,19.3,16.11S208.05,261.22,208,261.33Z" style="fill: rgb(38, 50, 56); transform-origin: 188.85px 245.03px;" id="elamkvb0o63f7" class="animable"></path><path d="M169.58,240.06c-.11,0-3.85-.36-4.74,1.27s-1,2.52-.64,3.49a17.17,17.17,0,0,0,2.16,3L167,249a7.11,7.11,0,0,0-.6,4.42,6.57,6.57,0,0,0,2.42,3.19s.3,4.87,3.26,4.91a3.69,3.69,0,0,0,3.48,2.69c2.72-.07,4.09.63,7.11-.93s6.52-3.12,7.29-4.68-1.92-1.73-1.92-1.73,1.46-4-3.25-3.48c0,0,.53-4.15-2.49-4.65a57.54,57.54,0,0,0-9.16-.13l-2.42-2.92s1.76-.5,1.86-2.06S171,240.11,169.58,240.06Z" style="fill: rgb(255, 191, 157); transform-origin: 177.053px 252.167px;" id="eldpbyr743exc" class="animable"></path><path d="M231.19,255.91c-.3.1-3.93,1.72-6.35,1.41s-21.18-10.58-23.9-11.39-7.36,0-4,3.53,13.62,9.28,13.82,9.58a13.53,13.53,0,0,1,.61,1.95l-10.49-4s-7.67-3.83-8.88-1.51.61,3.63,2.52,4.23,4,1.25,4,1.25,2.22,4.1,4.43,5.71,12.31,8.07,14,8.78,22.39,2.32,22.79,2,0-15.43,0-15.43l-7.26-6.55Z" style="fill: rgb(255, 191, 157); transform-origin: 215.764px 261.567px;" id="el55vdi6cnguv" class="animable"></path></g><defs>     <filter id="active" height="200%">         <feMorphology in="SourceAlpha" result="DILATED" operator="dilate" radius="2"></feMorphology>                <feFlood flood-color="#32DFEC" flood-opacity="1" result="PINK"></feFlood>        <feComposite in="PINK" in2="DILATED" operator="in" result="OUTLINE"></feComposite>        <feMerge>            <feMergeNode in="OUTLINE"></feMergeNode>            <feMergeNode in="SourceGraphic"></feMergeNode>        </feMerge>    </filter>    <filter id="hover" height="200%">        <feMorphology in="SourceAlpha" result="DILATED" operator="dilate" radius="2"></feMorphology>                <feFlood flood-color="#ff0000" flood-opacity="0.5" result="PINK"></feFlood>        <feComposite in="PINK" in2="DILATED" operator="in" result="OUTLINE"></feComposite>        <feMerge>            <feMergeNode in="OUTLINE"></feMergeNode>            <feMergeNode in="SourceGraphic"></feMergeNode>        </feMerge>            <feColorMatrix type="matrix" values="0   0   0   0   0                0   1   0   0   0                0   0   0   0   0                0   0   0   1   0 "></feColorMatrix>    </filter></defs></svg>